<svg width="410" height="565" viewBox="0 0 410 565" fill="none" xmlns="http://www.w3.org/2000/svg">
<rect width="130" height="130" fill="#C4C4C4"/>
<rect x="140" width="130" height="130" fill="#C4C4C4"/>
<rect x="280" width="130" height="130" fill="#C4C4C4"/>
<rect y="145" width="130" height="130" fill="#C4C4C4"/>
<rect x="140" y="145" width="130" height="130" fill="#C4C4C4"/>
<rect x="280" y="145" width="130" height="130" fill="#C4C4C4"/>
<rect y="290" width="130" height="130" fill="#C4C4C4"/>
<rect x="140" y="290" width="130" height="130" fill="#C4C4C4"/>
<rect x="140" y="435" width="130" height="130" fill="#C4C4C4"/>
<rect x="280" y="435" width="130" height="130" fill="#C4C4C4"/>
<rect y="432" width="130" height="130" fill="#C4C4C4"/>
<rect x="280" y="290" width="130" height="130" fill="#C4C4C4"/>
<path d="M67.295 81.41C69.4483 81.41 71.8283 81.2967 74.435 81.07C74.6617 81.75 74.775 82.3733 74.775 82.94C74.775 85.0933 73.67 86.17 71.46 86.17C71.12 86.17 69.7033 86.1417 67.21 86.085C64.7167 86.0283 62.2517 86 59.815 86C56.6417 86 54.1767 86.0283 52.42 86.085C52.1367 85.235 51.995 84.555 51.995 84.045C51.995 82.1183 53.6383 81.155 56.925 81.155H61.005C61.005 80.4183 61.0333 78.2367 61.09 74.61C61.1467 70.9833 61.175 67.6967 61.175 64.75C61.175 59.7633 61.09 55.145 60.92 50.895C56.2167 51.4617 53.27 51.8583 52.08 52.085C51.9667 51.5183 51.91 51.0367 51.91 50.64C51.91 48.5433 53.015 47.325 55.225 46.985C60.665 46.0783 63.5833 45.625 63.98 45.625C64.83 45.625 65.595 45.88 66.275 46.39C67.0117 46.9 67.38 47.7217 67.38 48.855C67.38 49.195 67.3233 50.2717 67.21 52.085C67.0967 53.8983 66.9833 56.1933 66.87 58.97C66.7567 61.7467 66.7 64.4383 66.7 67.045V69.935C66.7 75.0917 66.8983 78.9167 67.295 81.41Z" fill="black"/>
<path d="M194.71 80.815C199.13 80.815 205.193 80.5883 212.9 80.135C216.527 80.0217 219.53 79.6533 221.91 79.03C222.59 79.9933 222.93 81.0133 222.93 82.09C222.93 84.47 220.89 85.745 216.81 85.915C212.39 86.085 207.715 86.17 202.785 86.17C199.045 86.17 194.965 86.1133 190.545 86C187.938 86 186.635 84.725 186.635 82.175C186.635 81.7217 186.663 81.3817 186.72 81.155C187.627 80.5317 189.638 79.2567 192.755 77.33C195.872 75.3467 198.223 73.7883 199.81 72.655C201.397 71.465 203.267 69.9633 205.42 68.15C207.63 66.3367 209.217 64.58 210.18 62.88C211.2 61.1233 211.71 59.395 211.71 57.695C211.71 55.5983 210.917 53.87 209.33 52.51C207.8 51.15 205.788 50.47 203.295 50.47C201.482 50.47 199.583 51.1217 197.6 52.425C195.617 53.7283 194.002 55.3717 192.755 57.355C190.715 57.0717 189.695 56.1933 189.695 54.72C189.695 52.7367 191.225 50.725 194.285 48.685C197.345 46.645 200.745 45.625 204.485 45.625C208.565 45.625 211.823 46.6167 214.26 48.6C216.697 50.5833 217.915 53.1333 217.915 56.25C217.915 60.16 215.988 64.325 212.135 68.745C208.282 73.165 202.473 77.1883 194.71 80.815Z" fill="black"/>
<path d="M334.884 67.405C340.154 67.405 344.092 66.4133 346.699 64.43C349.362 62.4467 350.694 60.095 350.694 57.375C350.694 55.2217 349.9 53.3517 348.314 51.765C346.784 50.1217 344.772 49.3 342.279 49.3C340.295 49.3 338.34 49.895 336.414 51.085C334.544 52.275 333.042 53.975 331.909 56.185C330.832 56.185 329.954 55.9017 329.274 55.335C328.594 54.7683 328.254 54.1167 328.254 53.38C328.254 51.4533 329.699 49.5267 332.589 47.6C335.535 45.6167 338.879 44.625 342.619 44.625C346.982 44.625 350.382 45.8433 352.819 48.28C355.312 50.66 356.559 53.4933 356.559 56.78C356.559 59.0467 355.85 61.2 354.434 63.24C353.074 65.2233 351.062 66.7533 348.399 67.83C351.459 68.7933 353.839 70.5217 355.539 73.015C357.295 75.4517 358.174 78.2283 358.174 81.345C358.174 86.3883 356.304 90.4967 352.564 93.67C348.824 96.9 343.724 98.515 337.264 98.515C334.43 98.515 332.249 98.09 330.719 97.24C329.245 96.4467 328.509 95.4267 328.509 94.18C328.509 92.5367 329.444 91.4883 331.314 91.035C333.014 92.735 335.365 93.585 338.369 93.585C342.675 93.585 346.047 92.5367 348.484 90.44C350.92 88.4 352.139 85.765 352.139 82.535C352.139 79.135 350.864 76.4717 348.314 74.545C345.764 72.5617 342.279 71.57 337.859 71.57C336.782 71.57 335.989 71.4 335.479 71.06C335.025 70.72 334.799 69.8983 334.799 68.595L334.884 67.405Z" fill="black"/>
<path d="M48.045 217.31C51.0483 217.48 54.08 217.565 57.14 217.565C60.54 217.565 63.77 217.48 66.83 217.31C66.83 210.283 66.915 202.322 67.085 193.425C61.5317 198.978 55.185 206.94 48.045 217.31ZM66.66 187.73C67.3967 187.05 68.8133 186.71 70.91 186.71C71.3067 186.71 72.015 186.767 73.035 186.88C73.035 187.05 72.95 188.183 72.78 190.28C72.6667 192.32 72.5533 195.182 72.44 198.865C72.3267 202.492 72.27 206.288 72.27 210.255V217.055C76.4633 216.715 79.24 216.233 80.6 215.61C81.0533 216.63 81.28 217.65 81.28 218.67C81.28 220.313 80.7133 221.333 79.58 221.73C78.2767 222.183 75.8683 222.438 72.355 222.495C72.355 230.655 72.8933 236.435 73.97 239.835C72.95 240.288 71.9017 240.515 70.825 240.515C69.1817 240.515 68.0767 240.147 67.51 239.41C66.9433 238.673 66.66 237.427 66.66 235.67C66.66 233.29 66.7167 228.927 66.83 222.58C55.27 222.58 47.9317 222.382 44.815 221.985C43.5683 221.815 42.945 220.653 42.945 218.5C42.945 217.877 43.0017 217.168 43.115 216.375C45.495 212.578 49.405 207.365 54.845 200.735C60.285 194.048 64.2233 189.713 66.66 187.73Z" fill="black"/>
<path d="M216.207 189.685C216.207 192.178 214.111 193.425 209.917 193.425C205.724 193.425 200.652 193.255 194.702 192.915L193.512 206.6C195.269 206.317 197.536 206.175 200.312 206.175C205.696 206.175 209.917 207.535 212.977 210.255C216.037 212.975 217.567 216.857 217.567 221.9C217.567 227.453 215.669 231.93 211.872 235.33C208.132 238.787 202.919 240.515 196.232 240.515C193.059 240.515 190.594 240.09 188.837 239.24C187.137 238.447 186.287 237.427 186.287 236.18C186.287 234.537 187.222 233.488 189.092 233.035C190.906 234.735 193.427 235.585 196.657 235.585C201.304 235.585 204.931 234.423 207.537 232.1C210.201 229.777 211.532 226.773 211.532 223.09C211.532 219.577 210.342 216.63 207.962 214.25C205.639 211.87 202.069 210.68 197.252 210.68C194.306 210.68 191.784 210.822 189.687 211.105C189.121 210.538 188.837 209.292 188.837 207.365C188.837 206.572 189.206 199.885 189.942 187.305C191.529 187.418 196.969 187.475 206.262 187.475C210.116 187.475 213.147 187.248 215.357 186.795C215.924 187.645 216.207 188.608 216.207 189.685Z" fill="black"/>
<path d="M341.655 240.85C335.875 240.85 331.625 238.895 328.905 234.985C326.185 231.075 324.825 226.06 324.825 219.94C324.825 214.613 325.817 209.485 327.8 204.555C329.84 199.625 332.985 195.46 337.235 192.06C341.485 188.66 346.387 186.96 351.94 186.96C354.263 186.96 355.425 187.895 355.425 189.765C355.425 190.332 355.312 191.125 355.085 192.145C353.498 191.918 352.337 191.805 351.6 191.805C347.123 191.805 343.27 193.193 340.04 195.97C336.81 198.747 334.458 202.118 332.985 206.085C331.568 210.052 330.86 214.217 330.86 218.58C330.86 230.253 334.657 236.09 342.25 236.09C345.537 236.09 348.058 234.815 349.815 232.265C351.572 229.715 352.45 226.655 352.45 223.085C352.45 219.005 351.543 215.917 349.73 213.82C347.973 211.667 345.678 210.59 342.845 210.59C341.258 210.59 339.7 210.93 338.17 211.61C337.603 210.703 337.32 209.882 337.32 209.145C337.32 208.295 337.773 207.615 338.68 207.105C340.267 206.312 342.137 205.915 344.29 205.915C349.22 205.915 352.847 207.417 355.17 210.42C357.493 213.367 358.655 217.107 358.655 221.64C358.655 226.683 357.153 231.16 354.15 235.07C351.147 238.923 346.982 240.85 341.655 240.85Z" fill="black"/>
<path d="M75.7656 337.915C66.9823 338.198 59.7573 338.34 54.0906 338.34C49.7273 338.34 47.5456 337.093 47.5456 334.6C47.5456 333.807 47.829 332.843 48.3956 331.71C51.1723 332.163 54.3456 332.39 57.9156 332.39C70.6656 332.39 78.514 332.333 81.4606 332.22C81.914 333.127 82.1406 334.175 82.1406 335.365C82.1406 336.498 81.9706 337.575 81.6306 338.595C80.6673 341.655 78.0323 347.52 73.7256 356.19C69.4756 364.803 65.424 372.623 61.5706 379.65C60.494 381.633 59.5023 383.107 58.5956 384.07C57.7456 385.033 56.8106 385.515 55.7906 385.515C53.9773 385.515 52.164 384.41 50.3506 382.2C55.1673 377.27 59.9556 370.413 64.7156 361.63C69.5323 352.79 73.2156 344.885 75.7656 337.915Z" fill="black"/>
<path d="M211.685 343.01C211.685 341.197 210.75 339.695 208.88 338.505C207.067 337.315 204.885 336.72 202.335 336.72C199.785 336.72 197.575 337.315 195.705 338.505C193.892 339.695 192.985 341.197 192.985 343.01C192.985 347.26 196.697 350.83 204.12 353.72C206.84 352.303 208.767 350.773 209.9 349.13C211.09 347.487 211.685 345.447 211.685 343.01ZM194.005 378.115C196.102 380.098 198.878 381.09 202.335 381.09C205.792 381.09 208.54 380.098 210.58 378.115C212.677 376.132 213.725 373.837 213.725 371.23C213.725 368.17 212.677 365.733 210.58 363.92C208.54 362.107 205.367 360.293 201.06 358.48C197.717 359.897 195.195 361.597 193.495 363.58C191.795 365.507 190.945 368.057 190.945 371.23C190.945 373.837 191.965 376.132 194.005 378.115ZM215.425 381.685C212.422 384.462 208.087 385.85 202.42 385.85C196.753 385.85 192.39 384.462 189.33 381.685C186.327 378.852 184.825 375.48 184.825 371.57C184.825 367.603 185.817 364.515 187.8 362.305C189.84 360.038 192.787 358.055 196.64 356.355C193.41 354.768 190.973 352.983 189.33 351C187.743 348.96 186.95 346.325 186.95 343.095C186.95 339.808 188.452 337.145 191.455 335.105C194.458 333.008 198.085 331.96 202.335 331.96C207.208 331.96 211.005 333.093 213.725 335.36C216.445 337.627 217.805 340.347 217.805 343.52C217.805 345.957 216.983 348.28 215.34 350.49C213.753 352.643 211.402 354.428 208.285 355.845C211.912 357.602 214.773 359.698 216.87 362.135C218.967 364.515 220.015 367.66 220.015 371.57C220.015 375.48 218.485 378.852 215.425 381.685Z" fill="black"/>
<path d="M341.825 331.625C347.605 331.625 351.855 333.58 354.575 337.49C357.295 341.4 358.655 346.415 358.655 352.535C358.655 357.862 357.635 362.99 355.595 367.92C353.612 372.85 350.495 377.015 346.245 380.415C341.995 383.815 337.093 385.515 331.54 385.515C329.217 385.515 328.055 384.58 328.055 382.71C328.055 382.143 328.168 381.35 328.395 380.33C329.982 380.557 331.143 380.67 331.88 380.67C336.357 380.67 340.21 379.282 343.44 376.505C346.67 373.728 348.993 370.357 350.41 366.39C351.883 362.423 352.62 358.258 352.62 353.895C352.62 342.222 348.823 336.385 341.23 336.385C337.943 336.385 335.422 337.66 333.665 340.21C331.908 342.76 331.03 345.82 331.03 349.39C331.03 353.47 331.908 356.587 333.665 358.74C335.478 360.837 337.802 361.885 340.635 361.885C342.222 361.885 343.78 361.545 345.31 360.865C345.877 361.772 346.16 362.593 346.16 363.33C346.16 364.18 345.707 364.86 344.8 365.37C343.213 366.163 341.343 366.56 339.19 366.56C334.26 366.56 330.633 365.087 328.31 362.14C325.987 359.137 324.825 355.368 324.825 350.835C324.825 345.792 326.327 341.343 329.33 337.49C332.333 333.58 336.498 331.625 341.825 331.625Z" fill="black"/>
<path d="M214.785 522.24C211.442 525.98 206.937 527.85 201.27 527.85C195.603 527.85 191.098 525.98 187.755 522.24C184.468 518.5 182.825 513.513 182.825 507.28C182.825 500.933 184.468 495.918 187.755 492.235C191.098 488.495 195.603 486.625 201.27 486.625C206.937 486.625 211.442 488.495 214.785 492.235C218.128 495.918 219.8 500.933 219.8 507.28C219.8 513.513 218.128 518.5 214.785 522.24ZM214.87 508.215C214.87 503.908 213.652 500.027 211.215 496.57C208.835 493.113 205.52 491.385 201.27 491.385C197.303 491.385 194.045 492.83 191.495 495.72C189.002 498.553 187.755 501.953 187.755 505.92C187.755 510.453 188.945 514.448 191.325 517.905C193.762 521.362 197.048 523.09 201.185 523.09C205.265 523.09 208.552 521.673 211.045 518.84C213.595 515.95 214.87 512.408 214.87 508.215Z" fill="black"/>
<path d="M327.931 506.675C328.165 505.158 328.298 502.358 328.331 498.275C328.331 495.358 328.223 493.092 328.006 491.475C329.006 491.275 330.298 491.175 331.881 491.175C333.181 491.175 334.348 491.317 335.381 491.6C336.415 491.883 337.356 492.342 338.206 492.975C339.073 493.592 339.74 494.467 340.206 495.6C340.69 496.733 340.931 498.092 340.931 499.675C340.931 502.175 340.265 504.233 338.931 505.85C337.598 507.45 335.698 508.25 333.231 508.25C330.965 508.25 329.198 507.725 327.931 506.675ZM330.106 492.8C330.173 493.95 330.206 495.308 330.206 496.875C330.206 500.575 330.09 503.558 329.856 505.825C330.756 506.425 331.865 506.725 333.181 506.725C334.231 506.725 335.14 506.525 335.906 506.125C336.673 505.725 337.256 505.192 337.656 504.525C338.073 503.842 338.373 503.142 338.556 502.425C338.74 501.708 338.831 500.958 338.831 500.175C338.831 497.692 338.215 495.825 336.981 494.575C335.748 493.325 333.99 492.7 331.706 492.7C331.34 492.7 330.806 492.733 330.106 492.8ZM346.225 496.5C346.275 496.9 346.3 498.192 346.3 500.375H347.9C349.017 500.375 349.817 500.35 350.3 500.3C350.35 500.433 350.375 500.617 350.375 500.85C350.375 501.183 350.3 501.417 350.15 501.55C350.017 501.667 349.8 501.733 349.5 501.75C349.15 501.767 348.675 501.775 348.075 501.775H346.3C346.3 504.458 346.35 506.075 346.45 506.625C347.05 506.658 347.534 506.675 347.9 506.675C350.1 506.675 351.542 506.525 352.225 506.225C352.342 506.525 352.4 506.842 352.4 507.175C352.4 507.442 352.334 507.633 352.2 507.75C351.95 507.933 350.817 508.025 348.8 508.025C348.4 508.025 347.759 508.017 346.875 508C345.992 508 345.534 508 345.5 508C345.084 507.983 344.8 507.892 344.65 507.725C344.517 507.558 344.45 507.283 344.45 506.9C344.45 506.667 344.459 506.158 344.475 505.375C344.492 504.575 344.5 503.95 344.5 503.5V499.675C344.5 497.775 344.4 496.283 344.2 495.2C345.834 495.083 347.359 495.025 348.775 495.025C350.792 495.025 351.925 495.125 352.175 495.325C352.309 495.442 352.375 495.633 352.375 495.9C352.375 496.233 352.317 496.55 352.2 496.85C351.4 496.583 350.15 496.45 348.45 496.45C347.8 496.45 347.059 496.467 346.225 496.5ZM355.532 503.65V499.6C355.532 497.867 355.482 496.358 355.382 495.075C355.649 495.042 355.974 495.025 356.357 495.025C357.124 495.025 357.507 495.275 357.507 495.775C357.507 495.842 357.49 496.1 357.457 496.55C357.44 497 357.415 497.558 357.382 498.225C357.349 498.892 357.332 499.525 357.332 500.125V501.85C357.332 504.483 357.382 506.075 357.482 506.625C358.049 506.658 358.49 506.675 358.807 506.675C360.89 506.675 362.24 506.525 362.857 506.225C362.957 506.542 363.007 506.858 363.007 507.175C363.007 507.442 362.949 507.633 362.832 507.75C362.582 507.933 361.507 508.025 359.607 508.025C359.24 508.025 358.632 508.017 357.782 508C356.949 508 356.507 508 356.457 508C356.074 507.983 355.815 507.892 355.682 507.725C355.549 507.558 355.482 507.283 355.482 506.9C355.482 506.7 355.49 506.225 355.507 505.475C355.524 504.725 355.532 504.117 355.532 503.65Z" fill="black"/>
<path d="M48.9086 504.65C49.6419 504.95 50.0086 505.358 50.0086 505.875C50.0086 506.475 49.5336 507.025 48.5836 507.525C47.6336 508.008 46.4586 508.25 45.0586 508.25C42.7086 508.25 40.8253 507.467 39.4086 505.9C37.9919 504.317 37.2836 502.25 37.2836 499.7C37.2836 497.033 37.9919 494.95 39.4086 493.45C40.8253 491.933 42.7419 491.175 45.1586 491.175C46.4586 491.175 47.5503 491.442 48.4336 491.975C49.3169 492.492 49.7586 493.133 49.7586 493.9C49.7586 494.583 49.2836 495 48.3336 495.15C48.0169 494.333 47.5169 493.725 46.8336 493.325C46.1503 492.908 45.4253 492.7 44.6586 492.7C43.0919 492.7 41.8086 493.325 40.8086 494.575C39.8253 495.808 39.3336 497.35 39.3336 499.2C39.3336 501.333 39.8336 503.125 40.8336 504.575C41.8336 506.008 43.2336 506.725 45.0336 506.725C45.8336 506.725 46.5753 506.55 47.2586 506.2C47.9586 505.85 48.5086 505.333 48.9086 504.65ZM52.9227 502.4V497.225C52.9227 494.875 52.8643 492.942 52.7477 491.425C53.031 491.375 53.3727 491.35 53.7727 491.35C54.5893 491.35 54.9977 491.667 54.9977 492.3C54.9977 492.4 54.981 492.742 54.9477 493.325C54.9143 493.892 54.881 494.608 54.8477 495.475C54.8143 496.325 54.7977 497.133 54.7977 497.9V500.15C54.7977 503.617 54.856 505.717 54.9727 506.45C55.6727 506.483 56.2227 506.5 56.6227 506.5C59.2227 506.5 60.8977 506.308 61.6477 505.925C61.7643 506.275 61.8227 506.642 61.8227 507.025C61.8227 507.325 61.7477 507.542 61.5977 507.675C61.3143 507.925 60.0393 508.05 57.7727 508.05C55.7727 508.05 54.5227 508.033 54.0227 508C53.5727 507.983 53.2643 507.867 53.0977 507.65C52.9477 507.433 52.8727 507.075 52.8727 506.575C52.8727 506.308 52.881 505.692 52.8977 504.725C52.9143 503.758 52.9227 502.983 52.9227 502.4ZM65.5904 493.025C65.6571 493.758 65.6904 495.525 65.6904 498.325H67.6654C69.0654 498.325 70.0654 498.292 70.6654 498.225C70.7321 498.358 70.7654 498.575 70.7654 498.875C70.7654 499.258 70.6738 499.517 70.4904 499.65C70.3238 499.783 70.0488 499.858 69.6654 499.875C69.2321 499.892 68.6404 499.9 67.8904 499.9H65.6904C65.6904 503.533 65.7488 505.717 65.8654 506.45C66.5988 506.483 67.1904 506.5 67.6404 506.5C70.4404 506.5 72.2321 506.308 73.0154 505.925C73.1488 506.258 73.2154 506.625 73.2154 507.025C73.2154 507.325 73.1404 507.542 72.9904 507.675C72.6904 507.925 71.3404 508.05 68.9404 508.05C66.8071 508.05 65.4904 508.033 64.9904 508C64.5071 507.983 64.1821 507.867 64.0154 507.65C63.8488 507.433 63.7654 507.075 63.7654 506.575C63.7654 506.308 63.7738 505.692 63.7904 504.725C63.8071 503.758 63.8154 502.983 63.8154 502.4V497.4C63.8154 495.017 63.6988 493.075 63.4654 491.575C65.2488 491.425 67.0654 491.35 68.9154 491.35C71.3154 491.35 72.6654 491.475 72.9654 491.725C73.1154 491.858 73.1904 492.075 73.1904 492.375C73.1904 492.775 73.1238 493.142 72.9904 493.475C72.0404 493.125 70.4904 492.95 68.3404 492.95C67.4571 492.95 66.5404 492.975 65.5904 493.025ZM83.6736 501.3C83.107 499.817 82.2486 497.308 81.0986 493.775C80.9486 494.158 80.5653 495.225 79.9486 496.975C79.332 498.725 78.7903 500.167 78.3236 501.3C79.6236 501.333 80.6403 501.35 81.3736 501.35C82.407 501.35 83.1736 501.333 83.6736 501.3ZM80.8486 502.825C80.4153 502.825 79.3653 502.808 77.6986 502.775C76.582 505.592 75.882 507.508 75.5986 508.525C75.0486 508.408 74.657 508.275 74.4236 508.125C74.207 507.975 74.0986 507.775 74.0986 507.525C74.0986 507.325 74.4486 506.392 75.1486 504.725C75.8653 503.058 76.732 500.942 77.7486 498.375C78.7653 495.792 79.5653 493.5 80.1486 491.5C80.4653 491.45 80.8153 491.425 81.1986 491.425C81.6153 491.425 81.907 491.5 82.0736 491.65C82.2403 491.783 82.4153 492.15 82.5986 492.75C83.6486 496.133 84.582 498.883 85.3986 501C86.6986 504.4 87.632 506.65 88.1986 507.75C87.732 508.083 87.332 508.25 86.9986 508.25C86.4653 508.25 86.107 508.025 85.9236 507.575C85.607 506.758 85.032 505.158 84.1986 502.775C82.332 502.808 81.2153 502.825 80.8486 502.825ZM98.3682 505.9C98.8015 506.383 99.3348 506.625 99.9682 506.625C100.168 506.625 100.393 506.6 100.643 506.55C100.793 506.85 100.868 507.1 100.868 507.3C100.868 507.933 100.243 508.25 98.9932 508.25C98.6765 508.25 98.3598 508.175 98.0432 508.025C97.7265 507.875 97.4098 507.617 97.0932 507.25C96.7765 506.883 96.5015 506.558 96.2682 506.275C96.0515 505.992 95.7765 505.55 95.4432 504.95C95.1265 504.35 94.9015 503.925 94.7682 503.675C94.6348 503.408 94.4098 502.933 94.0932 502.25C93.7765 501.55 93.5932 501.15 93.5432 501.05C93.0765 500.983 92.8432 500.8 92.8432 500.5C92.8432 500.35 92.8848 500.125 92.9682 499.825C93.4348 499.908 93.8265 499.95 94.1432 499.95C95.2598 499.95 96.1348 499.625 96.7682 498.975C97.4015 498.308 97.7182 497.408 97.7182 496.275C97.7182 494.942 97.3682 494.017 96.6682 493.5C95.9682 492.967 94.8932 492.7 93.4432 492.7C92.9098 492.7 92.2598 492.733 91.4932 492.8C91.5598 493.767 91.5932 495.467 91.5932 497.9V502.925C91.5932 505.175 91.7515 506.825 92.0682 507.875C91.7682 508.008 91.3765 508.075 90.8932 508.075C90.4098 508.075 90.0848 507.967 89.9182 507.75C89.7515 507.533 89.6682 507.167 89.6682 506.65C89.6682 506.383 89.6765 505.725 89.6932 504.675C89.7098 503.625 89.7182 502.808 89.7182 502.225V497.225C89.7182 494.925 89.6098 493.008 89.3932 491.475C90.6265 491.275 91.8682 491.175 93.1182 491.175C97.5848 491.175 99.8182 492.833 99.8182 496.15C99.8182 497.517 99.4432 498.625 98.6932 499.475C97.9432 500.308 96.9515 500.842 95.7182 501.075C95.7182 501.092 95.8598 501.4 96.1432 502C96.4265 502.6 96.6182 503 96.7182 503.2C96.8348 503.4 97.0098 503.725 97.2432 504.175C97.4765 504.625 97.6765 504.983 97.8432 505.25C98.0265 505.517 98.2015 505.733 98.3682 505.9Z" fill="black"/>
</svg>
